 <svg  version="1.0" xmlns="http://www.w3.org/2000/svg"  width="450.000000pt" height="447.000000pt" viewBox="0 0 450.000000 447.000000"  preserveAspectRatio="xMidYMid meet">  <g transform="translate(0.000000,447.000000) scale(0.100000,-0.100000)" fill="#2b6cee" stroke="none"> <path d="M0 2235 l0 -2235 2245 0 2245 0 0 2235 0 2235 -2245 0 -2245 0 0 -2235z m3535 622 c6 -7 18 -28 27 -47 51 -111 77 -171 98 -222 12 -32 27 -58 32 -58 5 0 7 -4 3 -10 -3 -5 4 -26 15 -47 11 -21 20 -41 20 -46 0 -4 13 -36 29 -70 96 -208 157 -357 153 -377 -7 -32 -43 -47 -111 -48 -83 0 -113 15 -135 70 -10 24 -22 51 -27 60 -5 10 -9 25 -9 33 0 8 -4 15 -9 15 -5 0 -14 20 -20 44 -12 49 -29 67 -41 45 -4 -8 -21 -31 -36 -51 -24 -31 -35 -37 -67 -38 -58 0 -127 44 -127 82 0 15 -3 16 -17 7 -16 -10 -38 -56 -74 -161 -7 -21 -23 -50 -35 -65 -20 -25 -30 -29 -96 -33 -40 -3 -85 -2 -100 3 -15 5 -42 4 -63 -2 -27 -7 -46 -6 -74 4 -23 8 -43 9 -53 4 -9 -5 -85 -9 -168 -10 -128 0 -156 2 -169 16 -14 14 -16 67 -19 443 -3 420 -2 428 18 450 17 18 31 22 86 22 54 0 69 -4 87 -22 22 -23 23 -27 26 -358 1 -184 4 -337 7 -341 2 -4 32 -9 66 -11 48 -4 70 0 93 13 28 16 58 23 97 20 9 -1 30 -13 47 -27 26 -21 34 -24 46 -14 8 7 15 19 15 27 0 9 11 36 24 62 27 54 31 63 91 206 26 60 58 134 72 165 67 149 83 186 83 199 0 23 51 74 83 82 32 8 119 -1 132 -14z m-2585 2 c160 -5 256 -87 268 -224 4 -52 0 -69 -22 -113 -14 -29 -31 -52 -36 -52 -5 0 -14 -8 -19 -18 -8 -15 -1 -26 40 -61 28 -24 53 -41 56 -37 3 3 5 49 5 103 -1 142 5 172 34 179 l24 6 -30 31 c-35 36 -47 85 -30 118 34 66 84 89 145 69 76 -25 100 -119 45 -181 -23 -27 -26 -35 -14 -37 13 -3 13 -6 -3 -18 -21 -16 -96 -18 -124 -4 -19 10 -19 4 -19 -325 l0 -335 78 0 77 0 -3 307 c-3 307 0 359 18 348 6 -4 10 -129 10 -322 0 -374 6 -353 -105 -353 -87 0 -95 7 -104 87 l-6 57 -37 -34 c-57 -54 -62 -58 -130 -81 -79 -26 -237 -34 -268 -12 -11 8 -18 18 -15 23 11 18 -14 20 -27 2 -7 -10 -27 -24 -45 -31 -39 -16 -89 -2 -123 34 -44 46 -22 139 41 173 l24 14 -28 -7 c-19 -4 -33 0 -45 11 -15 15 -16 50 -16 335 1 241 4 322 13 333 10 12 42 16 155 18 77 2 143 2 146 1 3 -1 35 -2 70 -4z m1126 -27 c84 -27 120 -48 182 -107 57 -54 96 -121 90 -157 -3 -19 -8 -14 -32 31 -56 108 -148 180 -277 218 -38 11 -117 17 -266 20 l-213 5 0 -442 0 -442 208 5 c142 3 223 10 259 20 138 40 232 116 290 235 36 72 38 75 41 45 4 -37 -32 -105 -87 -168 -54 -62 -157 -119 -248 -138 -89 -19 -102 -19 -310 -18 -137 1 -153 3 -162 20 -6 11 -11 165 -11 387 -2 462 -2 476 10 494 21 34 416 28 526 -8z m-62 -153 c47 -16 129 -88 146 -128 l12 -30 31 20 c35 21 87 25 118 8 11 -5 17 -15 13 -20 -3 -6 4 -20 16 -31 48 -45 53 -112 11 -160 -15 -18 -26 -38 -24 -44 4 -12 -38 -34 -65 -34 -10 0 -35 9 -57 20 -22 11 -40 20 -41 20 -1 0 -4 -10 -8 -23 -12 -51 -64 -105 -132 -138 -63 -31 -75 -33 -190 -37 l-124 -4 0 302 0 302 128 -5 c70 -3 144 -11 166 -18z m-576 -880 c27 1 44 -4 48 -12 3 -8 22 -14 45 -15 23 -1 45 -5 50 -8 6 -3 16 0 24 6 11 9 21 8 42 -2 23 -11 29 -20 31 -57 5 -62 -5 -90 -33 -103 -21 -9 -31 -7 -62 14 -33 21 -48 24 -114 23 -42 -1 -81 -5 -87 -9 -19 -11 -59 4 -68 27 -5 12 -9 43 -9 69 1 56 25 82 65 72 14 -3 44 -6 68 -5z m878 -3 c13 -10 25 -11 35 -5 8 5 23 8 34 8 14 0 16 -2 5 -6 -36 -13 -51 -43 -48 -91 3 -45 4 -47 36 -50 l32 -3 0 55 c0 31 -4 56 -10 56 -5 0 -10 -20 -10 -45 0 -33 -4 -45 -15 -45 -11 0 -15 12 -15 44 0 55 7 58 125 60 115 2 125 -6 114 -90 -11 -81 -54 -109 -97 -63 -17 17 -31 20 -88 19 -38 -1 -76 -1 -84 0 -8 1 -30 -1 -48 -4 -51 -7 -72 19 -69 88 2 30 9 61 16 70 17 20 60 21 87 2z m676 -4 c25 -15 29 -14 47 2 14 13 26 16 43 10 13 -4 30 -7 39 -6 25 4 44 -38 44 -93 -1 -61 -9 -75 -41 -75 -13 0 -34 -6 -45 -12 -17 -10 -23 -10 -26 -1 -3 7 -27 15 -54 19 -27 4 -52 10 -55 15 -3 5 -13 3 -24 -3 -27 -17 -50 6 -50 49 0 18 -7 45 -16 58 -14 21 -14 28 -3 41 16 20 103 17 141 -4z m-1164 -7 c10 -15 56 -12 75 4 14 11 22 11 53 -4 34 -16 38 -16 46 -1 5 9 18 16 28 16 53 0 72 -123 26 -169 -23 -23 -27 -23 -43 -9 -33 28 -65 29 -99 3 -40 -31 -61 -31 -91 -3 -16 15 -36 22 -61 22 -20 0 -40 4 -44 10 -9 13 -10 108 -2 129 6 18 100 19 112 2z m846 3 c5 -10 7 -10 12 0 3 7 24 12 49 12 35 0 48 -5 64 -26 11 -15 18 -30 16 -34 -3 -5 -2 -11 3 -14 4 -2 6 -23 4 -45 -3 -34 -9 -42 -29 -47 -13 -4 -35 -2 -49 4 -15 8 -32 8 -48 2 -18 -7 -28 -5 -40 9 -18 20 -40 115 -32 136 7 18 42 20 50 3z m1194 -63 c17 -4 22 -12 20 -28 l-3 -22 -273 -3 c-167 -1 -280 2 -290 8 -11 6 77 9 271 10 184 0 287 4 287 10 0 6 -102 10 -285 10 -178 0 -285 4 -285 10 0 15 497 20 558 5z m-2710 -9 c7 -4 12 -13 11 -19 0 -9 -2 -9 -6 1 -6 15 -563 18 -563 2 0 -6 102 -11 273 -13 l272 -2 -274 0 c-211 0 -275 3 -279 13 -2 6 5 15 17 20 26 9 533 8 549 -2z m1019 3 c28 -28 -20 -53 -56 -30 -12 8 -12 12 -2 25 16 19 42 21 58 5z"/> <path d="M2490 2405 l0 -434 165 -3 c91 -2 165 -2 165 -2 0 1 -7 19 -16 39 -10 24 -13 51 -9 72 l6 33 -78 0 -78 0 3 365 3 365 -81 0 -80 0 0 -435z"/> <path d="M3366 2808 c-7 -18 -91 -211 -186 -428 -94 -217 -174 -399 -176 -405 -3 -6 28 -9 85 -7 l89 3 116 297 c63 163 123 319 132 345 l16 48 69 -183 c38 -100 99 -255 135 -345 l66 -162 90 -3 c75 -3 88 -1 84 12 -2 8 -87 205 -187 438 l-183 422 -68 0 c-67 0 -68 0 -82 -32z"/> <path d="M3439 2523 c-15 -4 -86 -180 -76 -190 3 -3 22 1 41 8 28 10 46 11 79 2 23 -6 43 -11 44 -10 2 3 -55 165 -64 180 -4 7 -15 11 -24 10z"/> <path d="M3376 2289 c-15 -17 -26 -43 -26 -59 0 -40 37 -79 81 -86 82 -13 134 92 74 151 -37 38 -95 35 -129 -6z"/> <path d="M2875 2136 c-29 -13 -55 -51 -55 -82 0 -29 29 -71 58 -83 78 -32 152 55 111 131 -6 11 -26 26 -44 34 -40 16 -33 16 -70 0z"/> <path d="M1320 2843 c-92 -35 -73 -177 24 -177 78 0 120 95 66 149 -26 25 -65 38 -90 28z"/> <path d="M590 2510 c0 -313 1 -332 18 -324 29 13 99 16 119 6 19 -10 19 -7 15 74 l-5 84 109 0 c60 0 125 -5 145 -10 48 -13 79 -49 86 -98 12 -87 -60 -142 -185 -142 l-72 0 1 -43 c1 -23 -3 -52 -9 -64 -7 -12 -12 -23 -12 -25 0 -2 53 0 119 3 128 8 179 23 238 73 68 58 93 175 57 267 -19 47 -79 95 -130 105 -40 7 -44 19 -9 28 34 9 90 60 105 96 7 18 11 58 8 99 -3 60 -8 75 -34 108 -17 21 -53 49 -80 63 -47 24 -57 25 -266 28 l-218 4 0 -332z m384 186 c43 -18 66 -51 66 -96 0 -79 -53 -111 -197 -118 l-103 -5 0 117 0 116 100 0 c63 0 113 -5 134 -14z"/> <path d="M772 2669 c-4 -13 -6 -55 -4 -92 l4 -68 81 2 c89 2 125 15 150 52 13 20 14 31 5 60 -14 46 -43 59 -145 65 -80 4 -83 4 -91 -19z"/> <path d="M788 2323 c-13 -3 -18 -15 -19 -46 -2 -80 -12 -102 -42 -102 -15 1 -27 -3 -27 -7 0 -4 8 -8 18 -8 9 0 30 -19 47 -41 29 -39 30 -39 45 -21 12 14 34 20 88 25 79 6 124 27 141 64 27 60 5 105 -61 127 -47 15 -150 20 -190 9z"/> <path d="M644 2140 c-55 -22 -73 -109 -31 -147 32 -29 56 -35 93 -23 38 13 68 66 58 104 -12 50 -76 85 -120 66z"/> <path d="M1753 2667 c-9 -15 -11 -498 -1 -518 25 -54 266 -11 338 59 9 9 31 38 48 64 18 25 37 49 44 51 10 4 10 8 -1 15 -19 13 -26 103 -11 131 13 25 18 17 -78 119 -55 59 -121 83 -239 87 -62 3 -95 0 -100 -8z"/> <path d="M2209 2471 c-16 -16 -29 -39 -29 -51 0 -51 49 -100 100 -100 10 0 32 12 49 26 25 21 31 33 31 65 0 84 -91 120 -151 60z"/> <path d="M1341 1784 c-16 -12 -21 -26 -21 -63 0 -54 15 -74 52 -69 18 2 24 10 25 33 3 29 2 29 -9 7 -18 -36 -43 -23 -46 24 -4 50 20 78 38 44 6 -11 15 -18 21 -15 12 8 -5 41 -25 48 -7 3 -23 -1 -35 -9z"/> <path d="M1440 1771 c0 -11 -4 -23 -10 -26 -12 -8 -13 -65 -1 -83 4 -8 19 -12 32 -10 21 3 24 9 27 49 3 39 0 47 -20 58 -13 6 -15 9 -5 6 12 -3 17 -1 15 7 -8 22 -38 22 -38 -1z m30 -66 c0 -24 -5 -35 -15 -35 -10 0 -15 11 -15 35 0 24 5 35 15 35 10 0 15 -11 15 -35z"/> <path d="M1510 1703 c0 -29 5 -53 10 -53 6 0 10 20 10 45 0 33 4 45 15 45 11 0 15 -12 15 -45 0 -25 5 -45 10 -45 12 0 13 79 2 98 -5 6 -20 11 -35 10 -26 -2 -27 -5 -27 -55z"/> <path d="M1600 1745 c-20 -24 -8 -78 20 -92 25 -13 21 -17 -15 -13 -15 1 -17 -1 -9 -10 7 -6 22 -10 35 -8 22 3 24 8 27 68 3 63 2 66 -22 68 -13 1 -29 -5 -36 -13z m40 -40 c0 -24 -5 -35 -15 -35 -10 0 -15 11 -15 35 0 24 5 35 15 35 10 0 15 -11 15 -35z"/> <path d="M1365 1729 c-10 -15 3 -25 16 -12 7 7 7 13 1 17 -6 3 -14 1 -17 -5z"/> <path d="M2240 1760 c0 -16 -5 -30 -11 -30 -8 0 -8 -4 1 -14 6 -8 10 -25 8 -38 -2 -19 2 -24 25 -26 41 -5 57 13 57 67 0 54 -12 71 -52 71 -24 0 -28 -4 -28 -30z m58 -37 c-2 -35 -8 -49 -19 -51 -17 -3 -34 34 -19 43 4 2 5 16 2 30 -3 20 0 25 17 25 20 0 22 -4 19 -47z"/> <path d="M2432 1701 l1 -56 6 44 c8 62 31 67 31 7 0 -26 5 -46 11 -46 6 0 9 21 7 53 -3 49 -5 52 -30 53 -28 1 -28 0 -26 -55z"/> <path d="M2514 1745 c-3 -7 -4 -30 -2 -51 3 -33 6 -39 26 -38 22 1 28 -7 16 -19 -4 -3 -16 -2 -26 4 -16 9 -19 8 -16 -3 6 -18 49 -23 59 -6 5 7 9 38 9 69 0 56 0 56 -31 57 -16 0 -32 -5 -35 -13z m44 -43 c2 -24 -1 -32 -12 -32 -12 0 -16 10 -16 36 0 45 24 42 28 -4z"/> <path d="M2860 1780 c0 -5 7 -10 15 -10 12 0 15 -13 15 -60 0 -33 4 -60 10 -60 6 0 10 27 10 60 0 47 3 60 15 60 8 0 15 5 15 10 0 6 -18 10 -40 10 -22 0 -40 -4 -40 -10z"/> <path d="M2950 1720 c0 -40 4 -70 10 -70 6 0 10 20 10 45 0 33 4 45 15 45 11 0 15 -12 15 -45 0 -25 5 -45 11 -45 6 0 9 21 7 53 -3 47 -5 52 -25 51 -16 0 -23 5 -23 18 0 10 -4 18 -10 18 -6 0 -10 -30 -10 -70z"/> <path d="M3050 1764 c-14 -35 -13 -36 10 -29 28 9 25 -5 -6 -30 -34 -27 -24 -55 20 -53 l32 1 -8 59 c-4 33 -10 64 -14 69 -10 16 -24 9 -34 -17z m30 -79 c0 -8 -7 -15 -15 -15 -16 0 -20 12 -8 23 11 12 23 8 23 -8z"/> <path d="M3118 1773 c-8 -33 4 -123 15 -123 10 0 13 48 8 128 -1 18 -18 15 -23 -5z"/> <path d="M1730 1721 c0 -41 4 -71 10 -71 6 0 10 21 11 48 l0 47 18 -45 c27 -66 39 -61 43 19 2 54 0 71 -10 71 -10 0 -12 -13 -7 -57 l6 -58 -24 54 c-33 80 -47 77 -47 -8z"/> <path d="M1917 1723 c1 -41 6 -69 13 -71 8 -3 11 10 8 39 -2 34 0 44 12 44 11 0 15 -11 16 -39 0 -22 5 -41 11 -43 8 -3 10 10 6 39 -7 64 -11 71 -34 65 -16 -4 -19 -2 -14 14 4 12 2 19 -7 19 -10 0 -13 -17 -11 -67z"/> <path d="M2017 1783 c-13 -13 -7 -22 11 -16 11 3 9 -1 -6 -12 -19 -14 -22 -25 -20 -58 2 -34 7 -43 24 -45 11 -2 27 4 34 13 15 19 5 34 -12 17 -16 -16 -28 -15 -28 2 0 8 10 16 23 18 22 3 24 14 12 58 -2 8 -4 18 -4 23 -1 9 -25 9 -34 0z"/> <path d="M1841 1746 c-21 -25 -9 -79 19 -93 25 -13 21 -17 -15 -13 -15 1 -17 -1 -9 -10 7 -6 22 -10 35 -8 22 3 24 9 27 62 2 41 -1 62 -10 67 -19 13 -34 11 -47 -5z m39 -41 c0 -24 -5 -35 -15 -35 -10 0 -15 11 -15 35 0 24 5 35 15 35 10 0 15 -11 15 -35z"/> <path d="M2651 1723 c10 -38 19 -69 19 -71 0 -2 5 -2 12 0 12 4 50 129 42 138 -8 8 -23 -23 -29 -62 -8 -48 -22 -40 -31 17 -4 27 -12 45 -19 45 -11 0 -9 -15 6 -67z"/> <path d="M2759 1776 c9 -10 8 -15 -4 -20 -8 -3 -15 -13 -15 -22 0 -14 3 -14 15 -4 9 7 19 10 22 6 4 -4 -5 -17 -21 -29 -36 -29 -27 -57 19 -55 l32 1 -5 46 c-5 47 -27 91 -44 91 -6 0 -6 -5 1 -14z m21 -91 c0 -8 -7 -15 -15 -15 -16 0 -20 12 -8 23 11 12 23 8 23 -8z"/> <path d="M2127 1714 c-10 -11 3 -24 24 -24 10 0 19 7 19 15 0 15 -31 21 -43 9z"/> </g> </svg> 